<svg width="590" height="175" viewBox="0 0 590 175" fill="none" xmlns="http://www.w3.org/2000/svg">
<path d="M0.0625 172V0.363631H46.6591V67.4091H108.341V0.363631H154.938V172H108.341V104.955H46.6591V172H0.0625ZM239.415 174.347C225.67 174.347 213.826 171.721 203.881 166.469C193.991 161.161 186.365 153.562 181.001 143.673C175.694 133.728 173.04 121.828 173.04 107.972C173.04 94.6742 175.722 83.053 181.085 73.108C186.449 63.1629 194.019 55.4247 203.797 49.8935C213.574 44.3622 225.112 41.5966 238.409 41.5966C248.131 41.5966 256.93 43.1051 264.808 46.1222C272.686 49.1392 279.419 53.5251 285.006 59.2798C290.593 64.9787 294.895 71.9067 297.912 80.0639C300.929 88.2211 302.438 97.4119 302.438 107.636V118.364H187.455V92.8864H259.864C259.808 89.1989 258.858 85.9583 257.014 83.1648C255.226 80.3153 252.796 78.1084 249.723 76.544C246.706 74.9238 243.27 74.1136 239.415 74.1136C235.671 74.1136 232.235 74.9238 229.107 76.544C225.978 78.1084 223.464 80.2874 221.564 83.081C219.72 85.8745 218.742 89.143 218.631 92.8864V120.375C218.631 124.509 219.497 128.197 221.229 131.438C222.961 134.678 225.447 137.22 228.688 139.064C231.928 140.908 235.839 141.83 240.42 141.83C243.605 141.83 246.51 141.383 249.136 140.489C251.818 139.595 254.109 138.31 256.009 136.634C257.908 134.902 259.305 132.834 260.199 130.432H302.438C300.985 139.371 297.549 147.137 292.129 153.73C286.71 160.267 279.53 165.351 270.591 168.983C261.707 172.559 251.315 174.347 239.415 174.347ZM367.576 0.363631V172H321.315V0.363631H367.576ZM437.408 0.363631V172H391.147V0.363631H437.408ZM522.996 174.347C509.028 174.347 497.072 171.581 487.127 166.05C477.182 160.463 469.555 152.696 464.248 142.751C458.94 132.75 456.286 121.157 456.286 107.972C456.286 94.786 458.94 83.2206 464.248 73.2756C469.555 63.2746 477.182 55.5085 487.127 49.9773C497.072 44.3901 509.028 41.5966 522.996 41.5966C536.964 41.5966 548.92 44.3901 558.865 49.9773C568.81 55.5085 576.437 63.2746 581.745 73.2756C587.052 83.2206 589.706 94.786 589.706 107.972C589.706 121.157 587.052 132.75 581.745 142.751C576.437 152.696 568.81 160.463 558.865 166.05C548.92 171.581 536.964 174.347 522.996 174.347ZM523.331 140.153C527.242 140.153 530.623 138.84 533.472 136.214C536.321 133.589 538.528 129.845 540.093 124.984C541.657 120.124 542.439 114.341 542.439 107.636C542.439 100.876 541.657 95.0933 540.093 90.2883C538.528 85.4276 536.321 81.6842 533.472 79.0582C530.623 76.4323 527.242 75.1193 523.331 75.1193C519.197 75.1193 515.649 76.4323 512.688 79.0582C509.727 81.6842 507.464 85.4276 505.9 90.2883C504.335 95.0933 503.553 100.876 503.553 107.636C503.553 114.341 504.335 120.124 505.9 124.984C507.464 129.845 509.727 133.589 512.688 136.214C515.649 138.84 519.197 140.153 523.331 140.153Z" fill="url(#paint0_radial_184_3)"/>
<defs>
<radialGradient id="paint0_radial_184_3" cx="0" cy="0" r="1" gradientUnits="userSpaceOnUse" gradientTransform="translate(293 60.5) rotate(-90) scale(321 445.76)">
<stop stop-color="white"/>
<stop offset="1" stop-color="#181818"/>
</radialGradient>
</defs>
</svg>
