{
    "asset" : {
        "generator" : "Khronos glTF Blender I/O v1.5.17",
        "version" : "2.0"
    },
    "scene" : 0,
    "scenes" : [
        {
            "name" : "Scene",
            "nodes" : [
                0,
                1,
                2,
                3,
                4
            ]
        }
    ],
    "nodes" : [
        {
            "mesh" : 0,
            "name" : "Cube",
            "rotation" : [
                0,
                -1,
                0,
                7.549790126404332e-08
            ],
            "scale" : [
                0.6851577162742615,
                0.6851577162742615,
                0.6851577162742615
            ],
            "translation" : [
                -2,
                0.800000011920929,
                -0.09999985247850418
            ]
        },
        {
            "name" : "Light",
            "rotation" : [
                0.16907575726509094,
                0.7558803558349609,
                -0.27217137813568115,
                0.570947527885437
            ],
            "translation" : [
                4.076245307922363,
                5.903861999511719,
                -1.0054539442062378
            ]
        },
        {
            "name" : "Camera",
            "rotation" : [
                -0.1866476833820343,
                -0.8127877116203308,
                0.40665897727012634,
                -0.37305158376693726
            ],
            "translation" : [
                2.9169328212738037,
                4.524920463562012,
                -4.181175708770752
            ]
        },
        {
            "mesh" : 1,
            "name" : "Plane",
            "scale" : [
                8.61674690246582,
                8.61674690246582,
                8.61674690246582
            ]
        },
        {
            "mesh" : 2,
            "name" : "Cube.001",
            "rotation" : [
                0,
                -1,
                0,
                7.549790126404332e-08
            ],
            "scale" : [
                0.6851577162742615,
                0.6851577162742615,
                0.6851577162742615
            ],
            "translation" : [
                0,
                0.800000011920929,
                -0.10000015050172806
            ]
        }
    ],
    "materials" : [
        {
            "doubleSided" : true,
            "name" : "Base",
            "pbrMetallicRoughness" : {
                "baseColorFactor" : [
                    0.13927704095840454,
                    0.030248532071709633,
                    0.8000000715255737,
                    1
                ],
                "metallicFactor" : 0,
                "roughnessFactor" : 0.4000000059604645
            }
        },
        {
            "doubleSided" : true,
            "name" : "Rubber",
            "pbrMetallicRoughness" : {
                "baseColorFactor" : [
                    1,
                    0.9119573831558228,
                    0.7428012490272522,
                    1
                ],
                "metallicFactor" : 0,
                "roughnessFactor" : 0.27941176295280457
            }
        },
        {
            "doubleSided" : true,
            "name" : "Material",
            "pbrMetallicRoughness" : {
                "baseColorFactor" : [
                    0.0765799954533577,
                    0.0765799954533577,
                    0.0765799954533577,
                    1
                ],
                "metallicFactor" : 0,
                "roughnessFactor" : 0.5
            }
        },
        {
            "doubleSided" : true,
            "name" : "inner",
            "pbrMetallicRoughness" : {
                "baseColorFactor" : [
                    0.7230551242828369,
                    0.6866853833198547,
                    0.6795424818992615,
                    1
                ],
                "metallicFactor" : 0,
                "roughnessFactor" : 0.5
            }
        },
        {
            "doubleSided" : true,
            "name" : "BG",
            "pbrMetallicRoughness" : {
                "baseColorFactor" : [
                    0.8000000715255737,
                    0.12718351185321808,
                    0.18983696401119232,
                    1
                ],
                "metallicFactor" : 0,
                "roughnessFactor" : 0.5
            }
        }
    ],
    "meshes" : [
        {
            "name" : "Cube",
            "primitives" : [
                {
                    "attributes" : {
                        "POSITION" : 0,
                        "NORMAL" : 1,
                        "TEXCOORD_0" : 2
                    },
                    "indices" : 3,
                    "material" : 0
                },
                {
                    "attributes" : {
                        "POSITION" : 4,
                        "NORMAL" : 5,
                        "TEXCOORD_0" : 6
                    },
                    "indices" : 7,
                    "material" : 1
                },
                {
                    "attributes" : {
                        "POSITION" : 8,
                        "NORMAL" : 9,
                        "TEXCOORD_0" : 10
                    },
                    "indices" : 11,
                    "material" : 2
                },
                {
                    "attributes" : {
                        "POSITION" : 12,
                        "NORMAL" : 13,
                        "TEXCOORD_0" : 14
                    },
                    "indices" : 15,
                    "material" : 3
                }
            ]
        },
        {
            "name" : "Plane",
            "primitives" : [
                {
                    "attributes" : {
                        "POSITION" : 16,
                        "NORMAL" : 17,
                        "TEXCOORD_0" : 18
                    },
                    "indices" : 19,
                    "material" : 4
                }
            ]
        },
        {
            "name" : "Cube.005",
            "primitives" : [
                {
                    "attributes" : {
                        "POSITION" : 20,
                        "NORMAL" : 21,
                        "TEXCOORD_0" : 22
                    },
                    "indices" : 3,
                    "material" : 0
                },
                {
                    "attributes" : {
                        "POSITION" : 23,
                        "NORMAL" : 24,
                        "TEXCOORD_0" : 25
                    },
                    "indices" : 7,
                    "material" : 1
                },
                {
                    "attributes" : {
                        "POSITION" : 26,
                        "NORMAL" : 27,
                        "TEXCOORD_0" : 28
                    },
                    "indices" : 11,
                    "material" : 2
                },
                {
                    "attributes" : {
                        "POSITION" : 29,
                        "NORMAL" : 30,
                        "TEXCOORD_0" : 31
                    },
                    "indices" : 15,
                    "material" : 3
                }
            ]
        }
    ],
    "accessors" : [
        {
            "bufferView" : 0,
            "componentType" : 5126,
            "count" : 15546,
            "max" : [
                1.0296459197998047,
                2.0824522972106934,
                3.262939929962158
            ],
            "min" : [
                -1.0296459197998047,
                -1.0000003576278687,
                -0.8671204447746277
            ],
            "type" : "VEC3"
        },
        {
            "bufferView" : 1,
            "componentType" : 5126,
            "count" : 15546,
            "type" : "VEC3"
        },
        {
            "bufferView" : 2,
            "componentType" : 5126,
            "count" : 15546,
            "type" : "VEC2"
        },
        {
            "bufferView" : 3,
            "componentType" : 5123,
            "count" : 82176,
            "type" : "SCALAR"
        },
        {
            "bufferView" : 4,
            "componentType" : 5126,
            "count" : 13426,
            "max" : [
                1.1877449750900269,
                0.8365101218223572,
                3.3940911293029785
            ],
            "min" : [
                -1.1877449750900269,
                -0.9975428581237793,
                -0.9957976937294006
            ],
            "type" : "VEC3"
        },
        {
            "bufferView" : 5,
            "componentType" : 5126,
            "count" : 13426,
            "type" : "VEC3"
        },
        {
            "bufferView" : 6,
            "componentType" : 5126,
            "count" : 13426,
            "type" : "VEC2"
        },
        {
            "bufferView" : 7,
            "componentType" : 5123,
            "count" : 72192,
            "type" : "SCALAR"
        },
        {
            "bufferView" : 8,
            "componentType" : 5126,
            "count" : 4098,
            "max" : [
                0.7019292116165161,
                1.970986008644104,
                0.6339434385299683
            ],
            "min" : [
                -0.7019292116165161,
                1.0366127490997314,
                -0.7236350178718567
            ],
            "type" : "VEC3"
        },
        {
            "bufferView" : 9,
            "componentType" : 5126,
            "count" : 4098,
            "type" : "VEC3"
        },
        {
            "bufferView" : 10,
            "componentType" : 5126,
            "count" : 4098,
            "type" : "VEC2"
        },
        {
            "bufferView" : 11,
            "componentType" : 5123,
            "count" : 24576,
            "type" : "SCALAR"
        },
        {
            "bufferView" : 12,
            "componentType" : 5126,
            "count" : 8231,
            "max" : [
                0.47746917605400085,
                2.0824522972106934,
                2.704533576965332
            ],
            "min" : [
                -0.4665995240211487,
                0.5902183055877686,
                0.5532870888710022
            ],
            "type" : "VEC3"
        },
        {
            "bufferView" : 13,
            "componentType" : 5126,
            "count" : 8231,
            "type" : "VEC3"
        },
        {
            "bufferView" : 14,
            "componentType" : 5126,
            "count" : 8231,
            "type" : "VEC2"
        },
        {
            "bufferView" : 15,
            "componentType" : 5123,
            "count" : 44406,
            "type" : "SCALAR"
        },
        {
            "bufferView" : 16,
            "componentType" : 5126,
            "count" : 460,
            "max" : [
                1,
                0.7550450563430786,
                1
            ],
            "min" : [
                -1,
                0,
                -1
            ],
            "type" : "VEC3"
        },
        {
            "bufferView" : 17,
            "componentType" : 5126,
            "count" : 460,
            "type" : "VEC3"
        },
        {
            "bufferView" : 18,
            "componentType" : 5126,
            "count" : 460,
            "type" : "VEC2"
        },
        {
            "bufferView" : 19,
            "componentType" : 5123,
            "count" : 2379,
            "type" : "SCALAR"
        },
        {
            "bufferView" : 20,
            "componentType" : 5126,
            "count" : 15546,
            "max" : [
                1.0296459197998047,
                2.0824522972106934,
                3.262939929962158
            ],
            "min" : [
                -1.0296459197998047,
                -1.0000003576278687,
                -0.8671204447746277
            ],
            "type" : "VEC3"
        },
        {
            "bufferView" : 21,
            "componentType" : 5126,
            "count" : 15546,
            "type" : "VEC3"
        },
        {
            "bufferView" : 22,
            "componentType" : 5126,
            "count" : 15546,
            "type" : "VEC2"
        },
        {
            "bufferView" : 23,
            "componentType" : 5126,
            "count" : 13426,
            "max" : [
                1.1877449750900269,
                0.8365101218223572,
                3.3940911293029785
            ],
            "min" : [
                -1.1877449750900269,
                -0.9975428581237793,
                -0.9957976937294006
            ],
            "type" : "VEC3"
        },
        {
            "bufferView" : 24,
            "componentType" : 5126,
            "count" : 13426,
            "type" : "VEC3"
        },
        {
            "bufferView" : 25,
            "componentType" : 5126,
            "count" : 13426,
            "type" : "VEC2"
        },
        {
            "bufferView" : 26,
            "componentType" : 5126,
            "count" : 4098,
            "max" : [
                0.7019292116165161,
                1.970986008644104,
                0.6339434385299683
            ],
            "min" : [
                -0.7019292116165161,
                1.0366127490997314,
                -0.7236350178718567
            ],
            "type" : "VEC3"
        },
        {
            "bufferView" : 27,
            "componentType" : 5126,
            "count" : 4098,
            "type" : "VEC3"
        },
        {
            "bufferView" : 28,
            "componentType" : 5126,
            "count" : 4098,
            "type" : "VEC2"
        },
        {
            "bufferView" : 29,
            "componentType" : 5126,
            "count" : 8231,
            "max" : [
                0.47746917605400085,
                2.0824522972106934,
                2.704533576965332
            ],
            "min" : [
                -0.4665995240211487,
                0.5902183055877686,
                0.5532870888710022
            ],
            "type" : "VEC3"
        },
        {
            "bufferView" : 30,
            "componentType" : 5126,
            "count" : 8231,
            "type" : "VEC3"
        },
        {
            "bufferView" : 31,
            "componentType" : 5126,
            "count" : 8231,
            "type" : "VEC2"
        }
    ],
    "bufferViews" : [
        {
            "buffer" : 0,
            "byteLength" : 186552,
            "byteOffset" : 0
        },
        {
            "buffer" : 0,
            "byteLength" : 186552,
            "byteOffset" : 186552
        },
        {
            "buffer" : 0,
            "byteLength" : 124368,
            "byteOffset" : 373104
        },
        {
            "buffer" : 0,
            "byteLength" : 164352,
            "byteOffset" : 497472
        },
        {
            "buffer" : 0,
            "byteLength" : 161112,
            "byteOffset" : 661824
        },
        {
            "buffer" : 0,
            "byteLength" : 161112,
            "byteOffset" : 822936
        },
        {
            "buffer" : 0,
            "byteLength" : 107408,
            "byteOffset" : 984048
        },
        {
            "buffer" : 0,
            "byteLength" : 144384,
            "byteOffset" : 1091456
        },
        {
            "buffer" : 0,
            "byteLength" : 49176,
            "byteOffset" : 1235840
        },
        {
            "buffer" : 0,
            "byteLength" : 49176,
            "byteOffset" : 1285016
        },
        {
            "buffer" : 0,
            "byteLength" : 32784,
            "byteOffset" : 1334192
        },
        {
            "buffer" : 0,
            "byteLength" : 49152,
            "byteOffset" : 1366976
        },
        {
            "buffer" : 0,
            "byteLength" : 98772,
            "byteOffset" : 1416128
        },
        {
            "buffer" : 0,
            "byteLength" : 98772,
            "byteOffset" : 1514900
        },
        {
            "buffer" : 0,
            "byteLength" : 65848,
            "byteOffset" : 1613672
        },
        {
            "buffer" : 0,
            "byteLength" : 88812,
            "byteOffset" : 1679520
        },
        {
            "buffer" : 0,
            "byteLength" : 5520,
            "byteOffset" : 1768332
        },
        {
            "buffer" : 0,
            "byteLength" : 5520,
            "byteOffset" : 1773852
        },
        {
            "buffer" : 0,
            "byteLength" : 3680,
            "byteOffset" : 1779372
        },
        {
            "buffer" : 0,
            "byteLength" : 4758,
            "byteOffset" : 1783052
        },
        {
            "buffer" : 0,
            "byteLength" : 186552,
            "byteOffset" : 1787812
        },
        {
            "buffer" : 0,
            "byteLength" : 186552,
            "byteOffset" : 1974364
        },
        {
            "buffer" : 0,
            "byteLength" : 124368,
            "byteOffset" : 2160916
        },
        {
            "buffer" : 0,
            "byteLength" : 161112,
            "byteOffset" : 2285284
        },
        {
            "buffer" : 0,
            "byteLength" : 161112,
            "byteOffset" : 2446396
        },
        {
            "buffer" : 0,
            "byteLength" : 107408,
            "byteOffset" : 2607508
        },
        {
            "buffer" : 0,
            "byteLength" : 49176,
            "byteOffset" : 2714916
        },
        {
            "buffer" : 0,
            "byteLength" : 49176,
            "byteOffset" : 2764092
        },
        {
            "buffer" : 0,
            "byteLength" : 32784,
            "byteOffset" : 2813268
        },
        {
            "buffer" : 0,
            "byteLength" : 98772,
            "byteOffset" : 2846052
        },
        {
            "buffer" : 0,
            "byteLength" : 98772,
            "byteOffset" : 2944824
        },
        {
            "buffer" : 0,
            "byteLength" : 65848,
            "byteOffset" : 3043596
        }
    ],
    "buffers" : [
        {
            "byteLength" : 3109444,
            "uri" : "data:application/octet-stream;base64,"
        }
    ]
}
